<svg width="200" height="200" viewBox="0 0 200 200" fill="none" xmlns="http://www.w3.org/2000/svg">
<g clip-path="url(#clip0_2_17)">
<mask id="path-1-inside-1_2_17" fill="white">
<path fill-rule="evenodd" clip-rule="evenodd" d="M0 40L40 0L100 60L160 0L200 40L140 100L200 160L160 200L100 140L40 200L0 160L60 100L0 40Z"/>
</mask>
<path fill-rule="evenodd" clip-rule="evenodd" d="M0 40L40 0L100 60L160 0L200 40L140 100L200 160L160 200L100 140L40 200L0 160L60 100L0 40Z" fill="#DC143C"/>
<path d="M40 0L42.1213 -2.12132L40 -4.24264L37.8787 -2.12132L40 0ZM0 40L-2.12132 37.8787L-4.24264 40L-2.12132 42.1213L0 40ZM100 60L97.8787 62.1213L100 64.2426L102.121 62.1213L100 60ZM160 0L162.121 -2.12132L160 -4.24264L157.879 -2.12132L160 0ZM200 40L202.121 42.1213L204.243 40L202.121 37.8787L200 40ZM140 100L137.879 97.8787L135.757 100L137.879 102.121L140 100ZM200 160L202.121 162.121L204.243 160L202.121 157.879L200 160ZM160 200L157.879 202.121L160 204.243L162.121 202.121L160 200ZM100 140L102.121 137.879L100 135.757L97.8787 137.879L100 140ZM40 200L37.8787 202.121L40 204.243L42.1213 202.121L40 200ZM0 160L-2.12132 157.879L-4.24264 160L-2.12132 162.121L0 160ZM60 100L62.1213 102.121L64.2426 100L62.1213 97.8787L60 100ZM37.8787 -2.12132L-2.12132 37.8787L2.12132 42.1213L42.1213 2.12132L37.8787 -2.12132ZM102.121 57.8787L42.1213 -2.12132L37.8787 2.12132L97.8787 62.1213L102.121 57.8787ZM157.879 -2.12132L97.8787 57.8787L102.121 62.1213L162.121 2.12132L157.879 -2.12132ZM202.121 37.8787L162.121 -2.12132L157.879 2.12132L197.879 42.1213L202.121 37.8787ZM142.121 102.121L202.121 42.1213L197.879 37.8787L137.879 97.8787L142.121 102.121ZM202.121 157.879L142.121 97.8787L137.879 102.121L197.879 162.121L202.121 157.879ZM162.121 202.121L202.121 162.121L197.879 157.879L157.879 197.879L162.121 202.121ZM97.8787 142.121L157.879 202.121L162.121 197.879L102.121 137.879L97.8787 142.121ZM42.1213 202.121L102.121 142.121L97.8787 137.879L37.8787 197.879L42.1213 202.121ZM-2.12132 162.121L37.8787 202.121L42.1213 197.879L2.12132 157.879L-2.12132 162.121ZM57.8787 97.8787L-2.12132 157.879L2.12132 162.121L62.1213 102.121L57.8787 97.8787ZM-2.12132 42.1213L57.8787 102.121L62.1213 97.8787L2.12132 37.8787L-2.12132 42.1213Z" fill="black" mask="url(#path-1-inside-1_2_17)"/>
</g>
<defs>
<clipPath id="clip0_2_17">
<rect width="200" height="200" fill="white"/>
</clipPath>
</defs>
</svg>
