<svg viewBox="0 0 200 200" fill="crimson" xmlns="http://www.w3.org/2000/svg">

    <mask id="path-1-inside-1_1_5">
        <path fill-rule="evenodd" clip-rule="evenodd"
            d="M100 200C155.228 200 200 155.228 200 100C200 44.7715 155.228 0 100 0C44.7715 0 0 44.7715 0 100C0 155.228 44.7715 200 100 200ZM100 150C127.614 150 150 127.614 150 100C150 72.3858 127.614 50 100 50C72.3858 50 50 72.3858 50 100C50 127.614 72.3858 150 100 150Z" />
    </mask>
    <path fill-rule="evenodd" clip-rule="evenodd"
        d="M100 200C155.228 200 200 155.228 200 100C200 44.7715 155.228 0 100 0C44.7715 0 0 44.7715 0 100C0 155.228 44.7715 200 100 200ZM100 150C127.614 150 150 127.614 150 100C150 72.3858 127.614 50 100 50C72.3858 50 50 72.3858 50 100C50 127.614 72.3858 150 100 150Z"
        />
    <path
        d="M199 100C199 154.676 154.676 199 100 199V201C155.781 201 201 155.781 201 100H199ZM100 1C154.676 1 199 45.3238 199 100H201C201 44.2192 155.781 -1 100 -1V1ZM1 100C1 45.3238 45.3238 1 100 1V-1C44.2192 -1 -1 44.2192 -1 100H1ZM100 199C45.3238 199 1 154.676 1 100H-1C-1 155.781 44.2192 201 100 201V199ZM149 100C149 127.062 127.062 149 100 149V151C128.167 151 151 128.167 151 100H149ZM100 51C127.062 51 149 72.938 149 100H151C151 71.8335 128.167 49 100 49V51ZM51 100C51 72.938 72.938 51 100 51V49C71.8335 49 49 71.8335 49 100H51ZM100 149C72.938 149 51 127.062 51 100H49C49 128.167 71.8335 151 100 151V149Z"
        fill="black" mask="url(#path-1-inside-1_1_5)" />

</svg>